<svg version="1.0" xmlns="http://www.w3.org/2000/svg" width="1024.000000pt" height="1024.000000pt" viewBox="0 0 1024.000000 1024.000000" preserveAspectRatio="xMidYMid meet">
<title>Logo EagleCraft</title>
<g transform="translate(0.000000,1024.000000) scale(0.100000,-0.100000)" fill="#212a6c" stroke="none">
<path d="M4960 10160 l0 -80 -320 0 -320 0 0 -80 0 -80 -320 0 -320 0 0 -80 0 -80 -320 0 -320 0 0 -80 0 -80 -320 0 -320 0 0 -80 0 -80 -320 0 -320 0 0 -80 0 -80 -80 0 -80 0 0 -80 0 -80 -80 0 -80 0 0 -480 0 -480 -80 0 -80 0 0 -1280 0 -1280 80 0 80 0 0 -480 0 -480 80 0 80 0 0 -400 0 -400 80 0 80 0 0 -320 0 -320 80 0 80 0 0 -240 0 -240 80 0 80 0 0 -240 0 -240 80 0 80 0 0 -160 0 -160 80 0 80 0 0 -160 0 -160 80 0 80 0 0 -80 0 -80 80 0 80 0 0 -80 0 -80 80 0 80 0 0 -80 0 -80 80 0 80 0 0 -80 0 -80 80 0 80 0 0 -80 0 -80 160 0 160 0 0 -80 0 -80 160 0 160 0 0 -80 0 -80 240 0 240 0 0 -80 0 -80 160 0 160 0 0 -80 0 -80 160 0 160 0 0 -80 0 -80 160 0 160 0 0 80 0 80 160 0 160 0 0 80 0 80 160 0 160 0 0 80 0 80 240 0 240 0 0 80 0 80 160 0 160 0 0 80 0 80 160 0 160 0 0 80 0 80 80 0 80 0 0 80 0 80 80 0 80 0 0 80 0 80 80 0 80 0 0 80 0 80 80 0 80 0 0 80 0 80 80 0 80 0 0 160 0 160 80 0 80 0 0 160 0 160 80 0 80 0 0 240 0 240 80 0 80 0 0 240 0 240 80 0 80 0 0 320 0 320 80 0 80 0 0 400 0 400 80 0 80 0 0 480 0 480 80 0 80 0 0 1280 0 1280 -80 0 -80 0 0 480 0 480 -80 0 -80 0 0 80 0 80 -80 0 -80 0 0 80 0 80 -320 0 -320 0 0 80 0 80 -320 0 -320 0 0 80 0 80 -320 0 -320 0 0 80 0 80 -320 0 -320 0 0 80 0 80 -320 0 -320 0 0 80 0 80 -160 0 -160 0 0 -80z m320 -160 l0 -80 320 0 320 0 0 -80 0 -80 320 0 320 0 0 -80 0 -80 320 0 320 0 0 -80 0 -80 320 0 320 0 0 -80 0 -80 320 0 320 0 0 -80 0 -80 80 0 80 0 0 -480 0 -480 80 0 80 0 0 -1280 0 -1280 -80 0 -80 0 0 -480 0 -480 -80 0 -80 0 0 -400 0 -400 -80 0 -80 0 0 -320 0 -320 -80 0 -80 0 0 -240 0 -240 -80 0 -80 0 0 -240 0 -240 -80 0 -80 0 0 -160 0 -160 -80 0 -80 0 0 -160 0 -160 -80 0 -80 0 0 -80 0 -80 -80 0 -80 0 0 -80 0 -80 -80 0 -80 0 0 -80 0 -80 -80 0 -80 0 0 -80 0 -80 -160 0 -160 0 0 -80 0 -80 -160 0 -160 0 0 -80 0 -80 -240 0 -240 0 0 -80 0 -80 -160 0 -160 0 0 -80 0 -80 -160 0 -160 0 0 -80 0 -80 -160 0 -160 0 0 80 0 80 -160 0 -160 0 0 80 0 80 -160 0 -160 0 0 80 0 80 -240 0 -240 0 0 80 0 80 -160 0 -160 0 0 80 0 80 -160 0 -160 0 0 80 0 80 -80 0 -80 0 0 80 0 80 -80 0 -80 0 0 80 0 80 -80 0 -80 0 0 80 0 80 -80 0 -80 0 0 160 0 160 -80 0 -80 0 0 160 0 160 -80 0 -80 0 0 240 0 240 -80 0 -80 0 0 240 0 240 -80 0 -80 0 0 320 0 320 -80 0 -80 0 0 400 0 400 -80 0 -80 0 0 480 0 480 -80 0 -80 0 0 1280 0 1280 80 0 80 0 0 480 0 480 80 0 80 0 0 80 0 80 320 0 320 0 0 80 0 80 320 0 320 0 0 80 0 80 320 0 320 0 0 80 0 80 320 0 320 0 0 80 0 80 320 0 320 0 0 80 0 80 160 0 160 0 0 -80z"/> <path d="M4960 9840 l0 -80 -320 0 -320 0 0 -80 0 -80 -320 0 -320 0 0 -80 0 -80 -320 0 -320 0 0 -80 0 -80 -320 0 -320 0 0 -80 0 -80 -320 0 -320 0 0 -480 0 -480 -80 0 -80 0 0 -1280 0 -1280 80 0 80 0 0 -480 0 -480 80 0 80 0 0 -400 0 -400 80 0 80 0 0 -320 0 -320 80 0 80 0 0 -240 0 -240 80 0 80 0 0 -240 0 -240 80 0 80 0 0 -160 0 -160 80 0 80 0 0 -160 0 -160 80 0 80 0 0 -80 0 -80 80 0 80 0 0 -80 0 -80 80 0 80 0 0 -80 0 -80 160 0 160 0 0 -80 0 -80 160 0 160 0 0 -80 0 -80 240 0 240 0 0 -80 0 -80 160 0 160 0 0 -80 0 -80 160 0 160 0 0 -80 0 -80 160 0 160 0 0 80 0 80 160 0 160 0 0 80 0 80 160 0 160 0 0 80 0 80 240 0 240 0 0 80 0 80 160 0 160 0 0 80 0 80 160 0 160 0 0 80 0 80 80 0 80 0 0 80 0 80 80 0 80 0 0 80 0 80 80 0 80 0 0 160 0 160 80 0 80 0 0 160 0 160 80 0 80 0 0 240 0 240 80 0 80 0 0 240 0 240 80 0 80 0 0 320 0 320 80 0 80 0 0 400 0 400 80 0 80 0 0 480 0 480 80 0 80 0 0 1280 0 1280 -80 0 -80 0 0 480 0 480 -320 0 -320 0 0 80 0 80 -320 0 -320 0 0 80 0 80 -320 0 -320 0 0 80 0 80 -320 0 -320 0 0 80 0 80 -320 0 -320 0 0 80 0 80 -160 0 -160 0 0 -80z m-160 -480 l0 -80 -80 0 -80 0 0 -80 0 -80 -80 0 -80 0 0 -160 0 -160 -80 0 -80 0 0 -80 0 -80 -80 0 -80 0 0 -80 0 -80 -80 0 -80 0 0 -240 0 -240 -80 0 -80 0 0 -320 0 -320 80 0 80 0 0 -240 0 -240 80 0 80 0 0 -80 0 -80 80 0 80 0 0 -80 0 -80 160 0 160 0 0 80 0 80 80 0 80 0 0 80 0 80 80 0 80 0 0 320 0 320 80 0 80 0 0 80 0 80 160 0 160 0 0 -80 0 -80 160 0 160 0 0 -80 0 -80 -80 0 -80 0 0 -80 0 -80 -160 0 -160 0 0 -160 0 -160 80 0 80 0 0 -80 0 -80 80 0 80 0 0 -80 0 -80 160 0 160 0 0 80 0 80 80 0 80 0 0 80 0 80 80 0 80 0 0 240 0 240 80 0 80 0 0 320 0 320 -80 0 -80 0 0 240 0 240 -80 0 -80 0 0 80 0 80 -80 0 -80 0 0 80 0 80 -80 0 -80 0 0 160 0 160 -80 0 -80 0 0 80 0 80 -80 0 -80 0 0 80 0 80 160 0 160 0 0 -80 0 -80 240 0 240 0 0 -80 0 -80 160 0 160 0 0 -80 0 -80 80 0 80 0 0 -80 0 -80 80 0 80 0 0 -80 0 -80 80 0 80 0 0 -80 0 -80 80 0 80 0 0 -80 0 -80 80 0 80 0 0 -160 0 -160 80 0 80 0 0 -240 0 -240 80 0 80 0 0 -240 0 -240 80 0 80 0 0 -640 0 -640 -80 0 -80 0 0 -240 0 -240 -80 0 -80 0 0 -160 0 -160 -80 0 -80 0 0 -80 0 -80 -80 0 -80 0 0 -80 0 -80 -80 0 -80 0 0 -80 0 -80 -80 0 -80 0 0 -160 0 -160 -80 0 -80 0 0 -240 0 -240 80 0 80 0 0 -160 0 -160 -80 0 -80 0 0 80 0 80 -80 0 -80 0 0 80 0 80 -80 0 -80 0 0 -80 0 -80 -80 0 -80 0 0 240 0 240 -80 0 -80 0 0 -80 0 -80 -160 0 -160 0 0 -80 0 -80 80 0 80 0 0 -80 0 -80 80 0 80 0 0 -160 0 -160 160 0 160 0 0 -80 0 -80 160 0 160 0 0 -80 0 -80 -160 0 -160 0 0 -80 0 -80 80 0 80 0 0 -80 0 -80 80 0 80 0 0 -80 0 -80 -80 0 -80 0 0 80 0 80 -80 0 -80 0 0 80 0 80 -80 0 -80 0 0 -160 0 -160 -80 0 -80 0 0 160 0 160 -80 0 -80 0 0 160 0 160 -160 0 -160 0 0 80 0 80 -80 0 -80 0 0 80 0 80 -80 0 -80 0 0 80 0 80 -160 0 -160 0 0 -80 0 -80 -80 0 -80 0 0 -80 0 -80 -80 0 -80 0 0 -80 0 -80 -160 0 -160 0 0 -160 0 -160 -80 0 -80 0 0 -240 0 -240 80 0 80 0 0 160 0 160 80 0 80 0 0 80 0 80 80 0 80 0 0 -80 0 -80 -80 0 -80 0 0 -160 0 -160 -80 0 -80 0 0 -80 0 -80 80 0 80 0 0 -80 0 -80 80 0 80 0 0 -80 0 -80 80 0 80 0 0 -80 0 -80 80 0 80 0 0 -80 0 -80 -80 0 -80 0 0 80 0 80 -80 0 -80 0 0 80 0 80 -80 0 -80 0 0 80 0 80 -80 0 -80 0 0 80 0 80 -80 0 -80 0 0 -80 0 -80 -160 0 -160 0 0 -80 0 -80 -80 0 -80 0 0 80 0 80 80 0 80 0 0 80 0 80 160 0 160 0 0 80 0 80 -160 0 -160 0 0 80 0 80 -160 0 -160 0 0 160 0 160 -80 0 -80 0 0 80 0 80 -80 0 -80 0 0 80 0 80 -80 0 -80 0 0 80 0 80 -80 0 -80 0 0 80 0 80 -80 0 -80 0 0 160 0 160 160 0 160 0 0 -80 0 -80 80 0 80 0 0 -80 0 -80 80 0 80 0 0 160 0 160 80 0 80 0 0 240 0 240 -80 0 -80 0 0 160 0 160 -80 0 -80 0 0 80 0 80 -80 0 -80 0 0 80 0 80 -80 0 -80 0 0 80 0 80 -80 0 -80 0 0 160 0 160 -80 0 -80 0 0 240 0 240 -80 0 -80 0 0 640 0 640 80 0 80 0 0 240 0 240 80 0 80 0 0 240 0 240 80 0 80 0 0 160 0 160 80 0 80 0 0 80 0 80 80 0 80 0 0 80 0 80 80 0 80 0 0 80 0 80 80 0 80 0 0 80 0 80 80 0 80 0 0 80 0 80 160 0 160 0 0 80 0 80 240 0 240 0 0 80 0 80 160 0 160 0 0 -80z m2880 -6960 l0 -160 -160 0 -160 0 0 -80 0 -80 -160 0 -160 0 0 -80 0 -80 -160 0 -160 0 0 -80 0 -80 -160 0 -160 0 0 -80 0 -80 -240 0 -240 0 0 80 0 80 -80 0 -80 0 0 80 0 80 -80 0 -80 0 0 80 0 80 -80 0 -80 0 0 160 0 160 80 0 80 0 0 -80 0 -80 80 0 80 0 0 -80 0 -80 80 0 80 0 0 -80 0 -80 240 0 240 0 0 80 0 80 160 0 160 0 0 80 0 80 160 0 160 0 0 80 0 80 160 0 160 0 0 80 0 80 160 0 160 0 0 -160z"/> <path d="M4000 3760 l0 -240 -80 0 -80 0 0 80 0 80 -80 0 -80 0 0 -80 0 -80 -80 0 -80 0 0 -80 0 -80 -80 0 -80 0 0 -80 0 -80 80 0 80 0 0 -80 0 -80 160 0 160 0 0 80 0 80 160 0 160 0 0 160 0 160 80 0 80 0 0 80 0 80 80 0 80 0 0 80 0 80 -160 0 -160 0 0 80 0 80 -80 0 -80 0 0 -240z"/>
</g>
</svg>
